# xmcd
#
# Track frame offsets:
#       150
#       8525
#       21147
#       32862
#       45555
#       53722
#       63805
#       79847
#       93627
#       109265
#       123022
#       136865
#       153792
#       164660
#       178875
#       189817
#       197092
#       208785
#       222015
#       235467
#
# Disc length: 3276 seconds
#
# Revision: 1
# Processed by: cddbd v1.5.2PL0 Copyright (c) Steve Scherf et al.
# Submitted via: FreeDbEdit v0.1
#
DISCID=080cca14
DTITLE=Roger Miller - The Legendary Roger Miller [CD2]
DYEAR=1900
DGENRE=Country
TTITLE0=Billy Bayou
TTITLE1=Half a Mind
TTITLE2=Invitation to the Blues
TTITLE3=The Last Word in Lonesome Is Me
TTITLE4=Home
TTITLE5=Heartbreak Hotel
TTITLE6=With Pen in Hand
TTITLE7=Where Have All the Average People Gone
TTITLE8=Swiss Cottage Place
TTITLE9=South
TTITLE10=Gentle on My Mind
TTITLE11=Honey
TTITLE12=Burning Bridges
TTITLE13=Green, Green Grass of Home
TTITLE14=Everybody's Talkin'
TTITLE15=Hey, Good Lookin'
TTITLE16=By the Time I Get to Phoenix
TTITLE17=My Elusive Dreams
TTITLE18=Ruby, Don't Take Your Love to Town
TTITLE19=Twelfth of Never
EXTD=
EXTT0=
EXTT1=
EXTT2=
EXTT3=
EXTT4=
EXTT5=
EXTT6=
EXTT7=
EXTT8=
EXTT9=
EXTT10=
EXTT11=
EXTT12=
EXTT13=
EXTT14=
EXTT15=
EXTT16=
EXTT17=
EXTT18=
EXTT19=
PLAYORDER=
